<svg width="151" height="65" viewBox="0 0 151 65" fill="none" xmlns="http://www.w3.org/2000/svg">
<path d="M60.6719 30.4276V34.5363C60.6719 36.045 60.5961 37.1533 60.4444 37.8613C60.2927 38.5608 59.9682 39.2182 59.4709 39.8335C58.9736 40.4403 58.3331 40.8912 57.5493 41.1862C56.7739 41.4728 55.8805 41.6161 54.8691 41.6161C53.7397 41.6161 52.7831 41.4939 51.9993 41.2494C51.2154 40.9966 50.6044 40.6215 50.1661 40.1243C49.7363 39.6186 49.4286 39.0117 49.2432 38.3038C49.0578 37.5874 48.9651 36.517 48.9651 35.0926V30.7942C48.9651 29.235 49.1337 28.0171 49.4708 27.1406C49.8079 26.264 50.4147 25.5603 51.2913 25.0293C52.1678 24.4983 53.2888 24.2328 54.6542 24.2328C55.8004 24.2328 56.7823 24.4056 57.5998 24.7511C58.4258 25.0883 59.0621 25.5308 59.5088 26.0786C59.9555 26.6264 60.2589 27.1911 60.4191 27.7727C60.5876 28.3542 60.6719 29.2392 60.6719 30.4276ZM55.5644 29.1633C55.5644 28.3037 55.518 27.7642 55.4253 27.5451C55.3326 27.3175 55.1346 27.2038 54.8311 27.2038C54.5277 27.2038 54.3255 27.3175 54.2243 27.5451C54.1232 27.7642 54.0726 28.3037 54.0726 29.1633V36.7361C54.0726 37.5284 54.1232 38.0467 54.2243 38.2911C54.3255 38.5271 54.5235 38.6451 54.8185 38.6451C55.1219 38.6451 55.32 38.5355 55.4127 38.3164C55.5138 38.0973 55.5644 37.6253 55.5644 36.9005V29.1633ZM67.4103 24.5362L67.3218 26.1292C67.7179 25.497 68.1899 25.0251 68.7378 24.7132C69.2856 24.3929 69.9093 24.2328 70.6088 24.2328C71.9742 24.2328 73.0488 24.8649 73.8326 26.1292C74.2625 25.497 74.7471 25.0251 75.2865 24.7132C75.8259 24.3929 76.4243 24.2328 77.0817 24.2328C77.9498 24.2328 78.6662 24.4435 79.2309 24.8649C79.804 25.2863 80.1707 25.8047 80.3308 26.4199C80.4909 27.0268 80.571 28.0171 80.571 29.3909V41.3127H75.6152V30.377C75.6152 28.9442 75.5646 28.0592 75.4635 27.7221C75.3708 27.3765 75.1474 27.2038 74.7935 27.2038C74.431 27.2038 74.195 27.3723 74.0855 27.7095C73.9843 28.0466 73.9338 28.9358 73.9338 30.377V41.3127H68.978V30.6551C68.978 29.0116 68.9358 28.0255 68.8515 27.6968C68.7757 27.3681 68.5565 27.2038 68.1941 27.2038C67.9666 27.2038 67.7727 27.2923 67.6126 27.4693C67.4524 27.6378 67.364 27.8485 67.3471 28.1014C67.3302 28.3458 67.3218 28.8726 67.3218 29.6817V41.3127H62.366V24.5362H67.4103ZM87.537 24.5362L87.4485 26.0154C87.9036 25.417 88.4051 24.9703 88.9529 24.6753C89.5007 24.3803 90.0991 24.2328 90.7481 24.2328C91.5404 24.2328 92.2231 24.4477 92.7962 24.8776C93.3777 25.299 93.7402 25.7878 93.8834 26.3441C94.0267 26.9003 94.0984 27.8443 94.0984 29.176V36.2431C94.0984 37.7686 94.0056 38.8558 93.8202 39.5048C93.6432 40.1453 93.2724 40.6595 92.7077 41.0472C92.1514 41.4264 91.4772 41.6161 90.6849 41.6161C90.0528 41.6161 89.467 41.4686 88.9276 41.1736C88.3882 40.8786 87.8952 40.4403 87.4485 39.8588V43.7021H82.3409V24.5362H87.537ZM88.9908 29.4162C88.9908 28.3795 88.9529 27.7516 88.8771 27.5325C88.8012 27.3133 88.5905 27.2038 88.2449 27.2038C87.9078 27.2038 87.6887 27.3302 87.5875 27.583C87.4948 27.8359 87.4485 28.4469 87.4485 29.4162V36.3695C87.4485 37.3809 87.499 38.013 87.6002 38.2658C87.7013 38.5187 87.9204 38.6451 88.2576 38.6451C88.5863 38.6451 88.7886 38.5313 88.8644 38.3038C88.9487 38.0678 88.9908 37.5031 88.9908 36.6097V29.4162ZM100.9 24.5362L100.698 26.736C101.439 25.1599 102.514 24.3255 103.921 24.2328V30.1368C102.986 30.1368 102.299 30.2632 101.861 30.5161C101.422 30.7689 101.153 31.1229 101.052 31.578C100.951 32.0247 100.9 33.0614 100.9 34.688V41.3127H95.7924V24.5362H100.9ZM116.64 33.2215H110.028V36.8499C110.028 37.6084 110.083 38.0973 110.192 38.3164C110.302 38.5355 110.512 38.6451 110.824 38.6451C111.212 38.6451 111.469 38.5018 111.595 38.2153C111.73 37.9203 111.798 37.3556 111.798 36.5212V34.3088H116.64V35.5477C116.64 36.5844 116.572 37.3809 116.437 37.9371C116.311 38.4934 116.008 39.0876 115.527 39.7197C115.047 40.3518 114.436 40.828 113.694 41.1483C112.961 41.4601 112.038 41.6161 110.925 41.6161C109.847 41.6161 108.894 41.4601 108.068 41.1483C107.242 40.8365 106.597 40.4108 106.134 39.8714C105.679 39.3236 105.363 38.7252 105.186 38.0762C105.009 37.4188 104.92 36.4664 104.92 35.219V30.3264C104.92 28.8599 105.118 27.7052 105.514 26.8624C105.911 26.0112 106.56 25.3622 107.461 24.9155C108.363 24.4604 109.4 24.2328 110.571 24.2328C112.004 24.2328 113.184 24.5067 114.111 25.0546C115.047 25.594 115.7 26.3146 116.071 27.2164C116.45 28.1098 116.64 29.3698 116.64 30.9965V33.2215ZM111.52 30.4908V29.2645C111.52 28.3964 111.473 27.8359 111.38 27.583C111.288 27.3302 111.098 27.2038 110.812 27.2038C110.458 27.2038 110.238 27.3133 110.154 27.5325C110.07 27.7432 110.028 28.3205 110.028 29.2645V30.4908H111.52ZM128.309 20.8447V23.5122H123.049V20.8447H128.309ZM128.309 24.5362V37.8107C128.309 39.3699 128.275 40.4277 128.207 40.984C128.148 41.5318 127.955 42.0122 127.626 42.4252C127.306 42.8466 126.872 43.1584 126.324 43.3607C125.784 43.563 124.971 43.6641 123.884 43.6641H121.912V40.984C122.518 40.984 122.86 40.9165 122.936 40.7817C123.011 40.6468 123.049 39.804 123.049 38.2532V24.5362H128.309ZM134.718 31.0344H129.927V29.9092C129.927 28.6113 130.074 27.6125 130.369 26.913C130.673 26.205 131.275 25.5813 132.177 25.0419C133.079 24.5025 134.251 24.2328 135.692 24.2328C137.42 24.2328 138.722 24.5404 139.598 25.1557C140.475 25.7625 141.002 26.5126 141.179 27.406C141.356 28.291 141.444 30.1199 141.444 32.8928V41.3127H136.476V39.8209C136.164 40.4193 135.759 40.8702 135.262 41.1736C134.773 41.4686 134.187 41.6161 133.505 41.6161C132.611 41.6161 131.789 41.3674 131.039 40.8702C130.298 40.3645 129.927 39.2646 129.927 37.5705V36.1925C129.927 34.9367 130.125 34.0812 130.521 33.6261C130.917 33.171 131.899 32.64 133.467 32.0332C135.144 31.3757 136.042 30.9333 136.16 30.7057C136.278 30.4781 136.337 30.0146 136.337 29.315C136.337 28.4385 136.269 27.8696 136.134 27.6083C136.008 27.3386 135.793 27.2038 135.489 27.2038C135.144 27.2038 134.929 27.3175 134.845 27.5451C134.76 27.7642 134.718 28.3416 134.718 29.2771V31.0344ZM136.337 33.3353C135.519 33.9337 135.043 34.4352 134.908 34.8398C134.781 35.2443 134.718 35.8259 134.718 36.5844C134.718 37.4525 134.773 38.013 134.883 38.2658C135.001 38.5187 135.228 38.6451 135.565 38.6451C135.886 38.6451 136.092 38.5482 136.185 38.3543C136.286 38.1521 136.337 37.6295 136.337 36.7867V33.3353ZM140.079 19.985L135.919 23.4111H133.353L135.578 19.985H140.079Z" fill="#CEC6FC"/>
<path d="M44.7935 38.7386C42.5148 42.8533 37.3192 45.8352 32.293 45.8352C24.9229 45.8352 18.7508 39.6631 18.7508 32.293C18.7508 24.9229 24.9229 18.7508 32.293 18.7508C37.3192 18.7508 42.5148 21.7327 44.7935 25.8474C46.5774 19.2195 50.2234 13.6985 56.1221 10.5082C50.2234 4.04965 41.7335 0 32.293 0C14.4537 0 0 14.4537 0 32.293C0 50.1323 14.4537 64.586 32.293 64.586C41.7335 64.586 50.2234 60.5364 56.1221 54.0778C50.2234 50.8875 46.5774 45.3665 44.7935 38.7386Z" fill="#B766D8"/>
</svg>
