<svg width="590" height="87" viewBox="0 0 590 87" fill="none" xmlns="http://www.w3.org/2000/svg">
<g filter="url(#filter0_d_14_2)">
<path d="M4.525 39.9443C4.525 32.8271 5.76714 26.4486 8.25143 20.8086C10.7357 15.1014 14.4621 10.6029 19.4307 7.31285C24.4664 3.95571 30.61 2.27714 37.8614 2.27714C45.1129 2.27714 51.2229 3.95571 56.1914 7.31285C61.2271 10.6029 64.9871 15.1014 67.4714 20.8086C70.0229 26.4486 71.2986 32.8271 71.2986 39.9443C71.2986 47.0614 70.0229 53.44 67.4714 59.08C64.9871 64.72 61.2271 69.185 56.1914 72.475C51.2229 75.765 45.1129 77.41 37.8614 77.41C30.61 77.41 24.4664 75.765 19.4307 72.475C14.4621 69.185 10.7357 64.72 8.25143 59.08C5.76714 53.44 4.525 47.0614 4.525 39.9443ZM60.3207 40.2464C60.3207 35.4121 59.6157 30.5443 58.2057 25.6429C56.8629 20.6743 54.5464 16.5114 51.2564 13.1543C47.9664 9.73 43.6693 8.01786 38.365 8.01786C33.5979 8.01786 29.4686 9.495 25.9771 12.4493C22.5529 15.3364 19.9343 19.2643 18.1214 24.2329C16.3086 29.2014 15.4021 34.7071 15.4021 40.75C15.4021 46.5914 16.2414 51.8286 17.92 56.4614C19.5986 61.0943 22.0829 64.7536 25.3729 67.4393C28.73 70.125 32.7586 71.4679 37.4586 71.4679C42.1586 71.4679 46.2207 70.0914 49.645 67.3386C53.1364 64.5857 55.7886 60.8593 57.6014 56.1593C59.4143 51.3921 60.3207 46.0879 60.3207 40.2464ZM424.212 72.5757L426.529 71.9714C429.08 71.2329 430.792 70.2593 431.665 69.0507C432.538 67.8421 432.975 65.6936 432.975 62.605V17.0821C432.975 13.9936 432.538 11.845 431.665 10.6364C430.792 9.42785 429.08 8.45428 426.529 7.71571L424.212 7.11143L425.421 3.68714H447.477L448.787 5.29857L447.477 7.11143C445.799 9.32714 444.624 11.6771 443.952 14.1614C443.281 16.6457 442.945 19.9021 442.945 23.9307V63.31C442.945 66.1971 443.348 68.2114 444.154 69.3529C444.96 70.4943 446.605 71.4343 449.089 72.1729L451.204 72.7771L450.096 76H425.421L424.212 72.5757Z" fill="#7462E9"/>
<path d="M104.272 71.77C108.167 71.77 111.289 70.7629 113.639 68.7486C116.056 66.7343 117.264 63.9479 117.264 60.3893C117.264 57.5021 116.526 55.0514 115.049 53.0371C113.572 51.0229 111.725 49.3779 109.509 48.1021C107.361 46.8264 104.407 45.3493 100.647 43.6707C96.3494 41.7236 92.8916 39.9443 90.273 38.3329C87.7216 36.7214 85.5394 34.5729 83.7266 31.8871C81.9137 29.2014 81.0073 25.8443 81.0073 21.8157C81.0073 18.3914 81.813 15.2021 83.4244 12.2479C85.103 9.22643 87.5873 6.80928 90.8773 4.99642C94.1673 3.18357 98.1958 2.27714 102.963 2.27714C107.327 2.27714 111.222 2.91499 114.646 4.19071C118.137 5.39928 120.823 7.145 122.703 9.42786C124.65 11.6436 125.624 14.195 125.624 17.0821C125.624 20.5064 124.583 23.3264 122.502 25.5421C120.487 27.7579 117.936 28.8657 114.847 28.8657C113.437 28.8657 112.732 28.4629 112.732 27.6571C112.732 27.4557 113.001 26.885 113.538 25.945C114.142 25.005 114.646 23.9643 115.049 22.8229C115.519 21.6143 115.754 20.1707 115.754 18.4921C115.754 15.3364 114.579 12.785 112.229 10.8379C109.879 8.89071 106.79 7.91714 102.963 7.91714C99.0016 7.91714 95.9466 9.05857 93.798 11.3414C91.6494 13.5571 90.5751 16.2764 90.5751 19.4993C90.5751 21.9836 91.2801 24.1321 92.6901 25.945C94.1001 27.7579 95.8458 29.2686 97.9273 30.4771C100.009 31.6857 102.896 33.1293 106.589 34.8079C111.02 36.755 114.612 38.6014 117.365 40.3471C120.185 42.0257 122.569 44.3086 124.516 47.1957C126.463 50.0157 127.437 53.5407 127.437 57.7707C127.437 63.7464 125.422 68.5136 121.394 72.0721C117.432 75.6307 111.725 77.41 104.272 77.41C99.438 77.41 95.1408 76.7386 91.3808 75.3957C87.6208 73.9857 84.6666 72.0721 82.518 69.655C80.4366 67.1707 79.3958 64.3507 79.3958 61.195C79.3958 57.7707 80.4701 54.9507 82.6187 52.735C84.8344 50.5193 87.5873 49.4114 90.8773 49.4114C91.6158 49.4114 92.153 49.5457 92.4887 49.8143C92.8244 50.0157 92.9923 50.2843 92.9923 50.62C92.9923 50.8214 92.6901 51.3921 92.0858 52.3321C91.4816 53.205 90.9444 54.2457 90.4744 55.4543C90.0044 56.6629 89.7694 58.1064 89.7694 59.785C89.7694 63.3436 91.1123 66.2307 93.798 68.4464C96.4837 70.6621 99.9751 71.77 104.272 71.77ZM333.334 72.5757L335.65 71.9714C338.201 71.2329 339.914 70.2593 340.786 69.0507C341.659 67.8421 342.096 65.6936 342.096 62.605V17.0821C342.096 13.9936 341.659 11.845 340.786 10.6364C339.914 9.42785 338.201 8.45428 335.65 7.71571L333.334 7.11143L334.542 3.68714H356.599L357.908 5.29857L356.599 7.11143C354.92 9.32714 353.745 11.6771 353.074 14.1614C352.402 16.6457 352.066 19.9021 352.066 23.9307V63.31C352.066 66.1971 352.469 68.2114 353.275 69.3529C354.081 70.4943 355.726 71.4343 358.21 72.1729L360.325 72.7771L359.217 76H334.542L333.334 72.5757ZM478.451 55.7564C478.451 59.8521 478.787 63.1421 479.458 65.6264C480.13 68.0436 481.305 70.36 482.983 72.5757L484.292 74.3886L482.983 76H460.927L459.718 72.5757L462.035 71.9714C464.586 71.3 466.298 70.3264 467.171 69.0507C468.044 67.775 468.48 65.6264 468.48 62.605V12.8521C468.48 11.9793 468.312 11.375 467.977 11.0393C467.641 10.6364 467.07 10.435 466.265 10.435H460.423L459.215 6.70857C462.102 5.56714 465.895 4.55999 470.595 3.68714C475.362 2.74714 479.928 2.27714 484.292 2.27714C494.23 2.27714 501.615 4.52642 506.45 9.025C511.284 13.4564 513.701 19.1971 513.701 26.2471C513.701 30.6114 512.828 34.5729 511.082 38.1314C509.337 41.6229 506.651 44.4429 503.025 46.5914C499.4 48.6729 494.901 49.7136 489.53 49.7136C487.045 49.7136 484.93 49.4114 483.185 48.8071C481.506 48.2029 480.667 47.33 480.667 46.1886C480.667 45.5171 480.801 44.9464 481.07 44.4764C481.338 44.0064 481.741 43.7714 482.278 43.7714C482.547 43.7714 483.084 43.9057 483.89 44.1743C484.762 44.3757 485.87 44.4764 487.213 44.4764C492.249 44.4764 496.177 42.865 498.997 39.6421C501.817 36.4193 503.227 32.055 503.227 26.5493C503.227 21.1107 501.716 16.6457 498.695 13.1543C495.74 9.66285 491.544 7.91714 486.105 7.91714C481.002 7.91714 478.451 9.46142 478.451 12.55V55.7564Z" fill="#B766D8"/>
<path d="M151.735 55.7564C151.735 59.785 152.071 63.0414 152.743 65.5257C153.414 68.01 154.589 70.36 156.268 72.5757L157.577 74.3886L156.268 76H137.132L135.923 72.5757L138.24 71.9714C140.791 71.2329 142.503 70.2593 143.376 69.0507C144.249 67.8421 144.685 65.6936 144.685 62.605V17.0821C144.685 13.9936 144.249 11.845 143.376 10.6364C142.503 9.42785 140.791 8.45428 138.24 7.71571L135.923 7.11143L137.132 3.68714H153.347L191.82 60.7921V17.0821C191.82 13.9936 191.383 11.845 190.51 10.6364C189.638 9.42785 187.925 8.45428 185.374 7.71571L183.058 7.11143L184.266 3.68714H203.402L204.711 5.29857L203.402 7.11143C201.723 9.32714 200.548 11.6771 199.877 14.1614C199.205 16.6457 198.87 19.9021 198.87 23.9307V67.1371C198.87 68.4129 198.97 69.4536 199.172 70.2593C199.373 71.065 199.743 71.8371 200.28 72.5757L201.589 74.3886L200.28 76H190.108L151.735 19.0964V55.7564ZM519.21 39.9443C519.21 32.8271 520.453 26.4486 522.937 20.8086C525.421 15.1014 529.148 10.6029 534.116 7.31285C539.152 3.95571 545.295 2.27714 552.547 2.27714C559.798 2.27714 565.908 3.95571 570.877 7.31285C575.913 10.6029 579.673 15.1014 582.157 20.8086C584.708 26.4486 585.984 32.8271 585.984 39.9443C585.984 47.0614 584.708 53.44 582.157 59.08C579.673 64.72 575.913 69.185 570.877 72.475C565.908 75.765 559.798 77.41 552.547 77.41C545.295 77.41 539.152 75.765 534.116 72.475C529.148 69.185 525.421 64.72 522.937 59.08C520.453 53.44 519.21 47.0614 519.21 39.9443ZM575.006 40.2464C575.006 35.4121 574.301 30.5443 572.891 25.6429C571.548 20.6743 569.232 16.5114 565.942 13.1543C562.652 9.73 558.355 8.01786 553.05 8.01786C548.283 8.01786 544.154 9.495 540.663 12.4493C537.238 15.3364 534.62 19.2643 532.807 24.2329C530.994 29.2014 530.088 34.7071 530.088 40.75C530.088 46.5914 530.927 51.8286 532.605 56.4614C534.284 61.0943 536.768 64.7536 540.058 67.4393C543.415 70.125 547.444 71.4679 552.144 71.4679C556.844 71.4679 560.906 70.0914 564.33 67.3386C567.822 64.5857 570.474 60.8593 572.287 56.1593C574.1 51.3921 575.006 46.0879 575.006 40.2464Z" fill="#A7A2E1"/>
<path d="M215.014 72.5757L217.33 71.9714C219.882 71.2329 221.594 70.2593 222.467 69.0507C223.34 67.8421 223.776 65.6936 223.776 62.605V17.0821C223.776 13.9936 223.34 11.845 222.467 10.6364C221.594 9.42785 219.882 8.45428 217.33 7.71571L215.014 7.11143L216.222 3.68714H238.279L239.588 5.29857L238.279 7.11143C236.6 9.32714 235.425 11.6771 234.754 14.1614C234.082 16.6457 233.747 19.9021 233.747 23.9307V63.31C233.747 66.1971 234.15 68.2114 234.955 69.3529C235.761 70.4943 237.406 71.4343 239.89 72.1729L242.005 72.7771L240.897 76H216.222L215.014 72.5757Z" fill="white"/>
<path d="M320.757 18.3914C320.085 15.9071 319.347 14.0607 318.541 12.8521C317.803 11.5764 316.762 10.7036 315.419 10.2336C314.076 9.69643 312.196 9.42786 309.779 9.42786H301.017C299.204 9.42786 297.828 9.62928 296.888 10.0321C296.015 10.435 295.41 11.1736 295.075 12.2479C294.739 13.3221 294.571 14.9336 294.571 17.0821V37.4264H306.355C307.966 37.4264 309.376 37.0907 310.585 36.4193C311.86 35.6807 313.103 34.4721 314.311 32.7936L315.117 31.6857L317.131 32.7936V50.0157L313.707 51.2243L313.103 48.9079C312.498 46.625 311.424 45.1143 309.88 44.3757C308.403 43.57 305.818 43.1671 302.125 43.1671H294.571V62.605C294.571 65.6936 295.008 67.8421 295.88 69.0507C296.753 70.2593 298.465 71.2329 301.017 71.9714L303.333 72.5757L302.125 76H280.068L278.759 74.3886L280.068 72.5757C281.747 70.36 282.922 68.01 283.593 65.5257C284.265 63.0414 284.6 59.785 284.6 55.7564V23.9307C284.6 19.9021 284.265 16.6457 283.593 14.1614C282.922 11.6771 281.747 9.32714 280.068 7.11143L278.759 5.29857L280.068 3.68714H309.88C315.654 3.68714 319.481 2.98214 321.361 1.57214L323.174 0.262853L324.785 1.57214V19.4993L321.361 20.7079L320.757 18.3914Z" fill="#8977FC"/>
<path d="M387.572 62.605C387.572 64.7536 387.74 66.365 388.076 67.4393C388.411 68.5136 389.016 69.2521 389.889 69.655C390.829 70.0579 392.205 70.2593 394.018 70.2593H402.78C405.197 70.2593 407.077 70.0243 408.42 69.5543C409.763 69.0171 410.804 68.1443 411.542 66.9357C412.348 65.66 413.086 63.78 413.758 61.2957L414.362 58.9793L417.786 60.1879V77.41L415.772 78.5179L414.966 77.41C414.228 76.47 412.818 76 410.736 76H370.451L369.343 72.7771L371.458 72.1729C373.942 71.4343 375.587 70.4943 376.393 69.3529C377.199 68.2114 377.601 66.1971 377.601 63.31V17.0821C377.601 13.9936 377.165 11.845 376.292 10.6364C375.419 9.42785 373.707 8.45428 371.156 7.71571L368.839 7.11143L370.048 3.68714H392.104L393.414 5.29857L392.104 7.11143C390.426 9.32714 389.251 11.6771 388.579 14.1614C387.908 16.6457 387.572 19.9021 387.572 23.9307V62.605Z" fill="#CEC6FC"/>
</g>
<defs>
<filter id="filter0_d_14_2" x="0.524994" y="0.262848" width="589.459" height="86.255" filterUnits="userSpaceOnUse" color-interpolation-filters="sRGB">
<feFlood flood-opacity="0" result="BackgroundImageFix"/>
<feColorMatrix in="SourceAlpha" type="matrix" values="0 0 0 0 0 0 0 0 0 0 0 0 0 0 0 0 0 0 127 0" result="hardAlpha"/>
<feOffset dy="4"/>
<feGaussianBlur stdDeviation="2"/>
<feComposite in2="hardAlpha" operator="out"/>
<feColorMatrix type="matrix" values="0 0 0 0 0 0 0 0 0 0 0 0 0 0 0 0 0 0 0.25 0"/>
<feBlend mode="normal" in2="BackgroundImageFix" result="effect1_dropShadow_14_2"/>
<feBlend mode="normal" in="SourceGraphic" in2="effect1_dropShadow_14_2" result="shape"/>
</filter>
</defs>
</svg>
